<?xml version="1.0" encoding="utf-8"?>
<!-- Generator: Adobe Illustrator 23.0.2, SVG Export Plug-In . SVG Version: 6.00 Build 0)  -->
<svg version="1.1" id="Layer_1" xmlns="http://www.w3.org/2000/svg" xmlns:xlink="http://www.w3.org/1999/xlink" x="0px" y="0px"
	 viewBox="0 0 141.2 26.1" style="enable-background:new 0 0 141.2 26.1;" xml:space="preserve">
<style type="text/css">
	.st0{fill:#FFFFFF;}
	.st1{fill:#C4D945;}
	.st2{fill:#67A740;}
</style>
<g id="Group_77" transform="translate(-46.564 -19.881)">
	<g id="Group_10" transform="translate(71.492 27.313)">
		<path id="Path_1" class="st0" d="M7,0h2.9v15.9H7v-0.7c-0.7,0.6-1.6,0.9-2.5,0.9c-3,0-4.6-2.1-4.6-5.2V9.3C0,6,1.8,4.2,4.6,4.2
			C5.5,4.1,6.3,4.4,7,5L7,0z M7,10.7V9.3C7,7.6,6.4,6.7,5,6.7c-1.5,0-2.1,1-2.1,2.9v1.2c0,1.7,0.5,2.9,2.1,2.9
			C6.6,13.6,7,12.4,7,10.7z"/>
		<path id="Path_2" class="st0" d="M20.3,14.1c-0.8,1.4-2.1,2-4.2,2c-3.5,0-5.1-2.2-5.1-5.2V9.3c0-3.5,1.8-5.2,4.7-5.2
			c3.2,0,4.7,1.9,4.7,5.4v1.3h-6.6c0,1.6,0.5,2.7,2.2,2.7c0.8,0.1,1.6-0.3,2.1-1L20.3,14.1z M13.9,8.8h3.6c-0.1-1.5-0.7-2.1-1.8-2.1
			C14.6,6.7,14,7.5,13.9,8.8z"/>
		<path id="Path_3" class="st0" d="M31.1,15.9h-2.9V9.1c0-1.8-0.7-2.4-1.8-2.4c-1.1,0-1.8,0.8-1.8,2.4v6.8h-2.9V4.4h2.9v1
			c0.6-0.8,1.6-1.2,2.6-1.2c1.3-0.1,2.5,0.5,3.2,1.5c0.8-1,2-1.6,3.3-1.5c2.5,0,4,1.5,4,4.5v7.2h-2.9V9.1c0-1.7-0.6-2.4-1.8-2.4
			c-1.1,0-1.8,0.8-1.8,2.4L31.1,15.9z"/>
		<path id="Path_4" class="st0" d="M42.8,9H45V8.3C45,7,44.6,6.6,43,6.6c-1.1,0-1.7,0.2-2.2,0.9l-2.1-1.5c0.9-1.4,2.1-1.9,4.5-1.9
			c3,0,4.7,0.9,4.7,4.2v7.6H45v-1c-0.5,0.9-1.5,1.3-2.5,1.2c-2.4,0-4.1-1.3-4.1-3.6C38.5,10,40.3,9,42.8,9z M45,11.2h-1.9
			c-1.2,0-1.7,0.4-1.7,1.3c0,0.9,0.7,1.3,1.7,1.3c1.3,0,2-0.6,2-2.1L45,11.2z"/>
		<path id="Path_5" class="st0" d="M49.4,4.4h2.9v1c0.7-0.8,1.6-1.2,2.7-1.2c2.3,0,4.2,1.1,4.2,4.5v7.2h-2.9V9.1
			c0-1.8-0.6-2.4-1.8-2.4c-1.4,0-2,0.9-2,2.4v6.8h-2.9L49.4,4.4z"/>
		<path id="Path_6" class="st0" d="M67.2,0h2.9v15.9h-2.9v-0.7c-0.7,0.6-1.6,0.9-2.5,0.9c-3,0-4.6-2.1-4.6-5.2V9.3
			c0-3.4,1.8-5.2,4.6-5.2c0.9,0,1.8,0.2,2.5,0.8V0z M67.2,10.7V9.3c0-1.7-0.7-2.6-2.1-2.6c-1.5,0-2.1,1-2.1,2.9v1.2
			c0,1.7,0.5,2.9,2.1,2.9C66.8,13.6,67.2,12.4,67.2,10.7z"/>
		<path id="Path_7" class="st0" d="M80.2,14.2c-0.9,1.3-2.4,2-3.9,1.9c-3.1,0-4.9-1.8-4.9-5.1V9.3c0-3.3,1.8-5,4.9-5
			c1.5-0.1,3,0.6,3.9,1.8l-1,0.7c-0.7-0.9-1.8-1.3-2.9-1.3c-2.3,0-3.6,1.4-3.6,3.9v1.7c0,2.3,1.1,3.9,3.6,3.9
			c1.1,0.1,2.3-0.5,2.9-1.4L80.2,14.2z"/>
		<path id="Path_8" class="st0" d="M82,10.5v0.5c0,2.3,1.1,3.9,3.5,3.9c1.2,0.1,2.3-0.4,3-1.4l1,0.7c-0.9,1.3-2.4,2-3.9,1.9
			c-3.1,0-4.8-1.9-4.8-5.1V9.3c0-3.3,1.6-5,4.4-5s4.4,1.8,4.4,5v1.2L82,10.5z M82,9.3h6.4v0c0-2.5-1.1-3.9-3.2-3.9S82,6.8,82,9.3
			L82,9.3z"/>
		<path id="Path_9" class="st0" d="M91.5,4.4h1.3v1.6c0.7-1.2,2-1.9,3.4-1.7c2.6,0,4.2,1.6,4.2,4.8v6.8h-1.3V9.1
			c0-2.6-1.3-3.7-3.1-3.7c-2.2,0-3.2,1.4-3.2,3.5v6.9h-1.3V4.4z"/>
		<path id="Path_10" class="st0" d="M101.7,4.4h1.5V1.8h1.3v2.5h2.8v1.2h-2.8V12c0,1.8,0.2,2.7,2.1,2.7h0.8v1.2h-0.8
			c-2.6,0-3.3-1.2-3.3-3.5V5.6h-1.5V4.4z"/>
		<path id="Path_11" class="st0" d="M110.1,9v6.9h-1.3V4.4h1.3v1.6c0.5-1.1,1.7-1.8,2.9-1.7c1.3-0.1,2.5,0.5,3.2,1.6l-1.1,0.8
			c-0.5-0.8-1.4-1.2-2.3-1.2C111.1,5.4,110.1,6.9,110.1,9z"/>
	</g>
	<path id="Path_1-2" class="st1" d="M67.1,38.6v-2.4c-1.8,0-3.2-1.5-3.2-3.2s1.5-3.2,3.2-3.2v-2.4c-3.1,0-5.6,2.5-5.6,5.6
		C61.5,36.1,64,38.6,67.1,38.6z"/>
	<path id="Path_2-2" class="st1" d="M67.1,46v-5.6c-4.1,0-7.5-3.4-7.5-7.5c0-4.1,3.4-7.5,7.5-7.5v-5.6c-7.2,0-13.1,5.8-13.1,13.1
		S59.9,46,67.1,46z"/>
	<path id="Path_3-2" class="st2" d="M46.6,27.3v2.4c1.8,0,3.2,1.5,3.2,3.2c0,1.8-1.5,3.2-3.2,3.2l0,0v2.4c3.1,0,5.6-2.5,5.6-5.6
		C52.2,29.8,49.7,27.3,46.6,27.3C46.6,27.3,46.6,27.3,46.6,27.3L46.6,27.3z"/>
	<path id="Path_4-2" class="st2" d="M46.6,19.9v5.6c4.1,0,7.5,3.4,7.5,7.5c0,4.1-3.4,7.5-7.5,7.5c0,0,0,0,0,0V46
		c7.2,0,13.1-5.8,13.1-13.1S53.8,19.9,46.6,19.9z"/>
</g>
</svg>
